<?xml version="1.0" encoding="utf-8"?>
<!-- Generator: Adobe Illustrator 28.3.0, SVG Export Plug-In . SVG Version: 6.00 Build 0)  -->
<svg version="1.1" id="Layer_1" xmlns="http://www.w3.org/2000/svg" xmlns:xlink="http://www.w3.org/1999/xlink" x="0px" y="0px"
	 viewBox="0 0 244 243.5" style="enable-background:new 0 0 244 243.5;" xml:space="preserve">
<style type="text/css">
	.st0{fill:#181818;}
	.st1{fill:#D3C29B;}
</style>
<circle class="st0" cx="121.9" cy="121.8" r="119.7"/>
<g>
	<g>
		<path class="st1" d="M121.4,148c-14.4,0-26.1-11.6-26.1-25.9S107,96,121.4,96s26.1,11.7,26.1,26.1S135.8,148,121.4,148z
			 M121.4,112.1c-5.4,0-9.8,4.4-9.8,10s4.4,9.8,9.8,9.8c5.4,0,9.8-4.4,9.8-9.8C131.3,116.6,126.8,112.1,121.4,112.1z"/>
		<path class="st1" d="M155.3,151.3c-0.9,0-1.6,0-2.2-0.1c-0.4,0-0.6-0.4-0.6-0.7s0.4-0.6,0.7-0.6c0.6,0,1.4,0.1,2.1,0.1
			c12.5,0,22-9.2,22-21.4c0-5.4-2.1-10.7-5.9-14.6c-0.2-0.2-0.2-0.7,0-1c0.2-0.2,0.7-0.2,1,0c4.1,4.2,6.3,9.7,6.3,15.6
			C178.7,141.6,168.6,151.4,155.3,151.3L155.3,151.3z"/>
		<path class="st1" d="M177.1,109.5c-0.4,0-0.7-0.4-0.7-0.7V97.8c0-0.4,0.4-0.7,0.7-0.7s0.7,0.4,0.7,0.7v10.9
			C177.8,109.1,177.5,109.5,177.1,109.5z"/>
		<path class="st1" d="M155.3,148.1c-0.9,0-1.7-0.1-2.5-0.1v-14.7c0.7,0.5,1.8,0.6,2.8,0.6c3.1,0,5.4-3.2,5.4-6c0-3.3-2.7-6.1-6-6.1
			h-1.4V97.1h20.9v12.3h-7.1v3.7c5,3.7,8,9.5,8,15.6C175.5,140,166.5,148.1,155.3,148.1L155.3,148.1z"/>
		<polygon class="st1" points="85.4,97.1 65.5,97.1 65.5,109.6 70.8,109.6 70.8,146.9 85.5,146.9 85.5,97 		"/>
		<path class="st1" d="M88.2,147c-0.4,0-0.7-0.4-0.7-0.7V97.8c0-0.4,0.4-0.7,0.7-0.7c0.4,0,0.7,0.4,0.7,0.7v48.4
			C88.9,146.6,88.6,147,88.2,147z"/>
		<path class="st1" d="M121.2,130.4c-4.5,0-8.4-3.7-8.4-8.4c0-4.5,3.7-8.4,8.4-8.4c0.4,0,0.7,0.4,0.7,0.7c0,0.4-0.4,0.7-0.7,0.7
			c-3.8,0-6.9,3.1-6.9,7c0,3.8,3.1,6.9,6.9,6.9c0.4,0,0.7,0.4,0.7,0.7C121.9,130,121.5,130.4,121.2,130.4L121.2,130.4z"/>
	</g>
	<path class="st1" d="M189.4,152c-0.1,0-0.2,0-0.2,0c-0.4-0.1-0.6-0.6-0.4-1c3.4-8.2,5.4-17,5.8-25.9c0.2-7.4-0.6-14.7-2.5-21.7
		c-0.1-0.4,0.1-0.9,0.5-0.9c0.4-0.1,0.9,0.1,0.9,0.5c2,7.2,2.8,14.7,2.5,22.2c-0.4,9.1-2.3,18.1-5.9,26.4
		C190,151.9,189.6,152,189.4,152L189.4,152z"/>
	<path class="st1" d="M54.3,152c-0.2,0-0.6-0.1-0.7-0.5c-4.3-10.2-6.3-20.9-5.9-31.9c0.2-5.7,1.1-11.2,2.6-16.7
		c0.1-0.4,0.5-0.6,0.9-0.5c0.4,0.1,0.6,0.5,0.5,0.9c-1.5,5.4-2.3,10.9-2.5,16.3c-0.4,10.8,1.5,21.4,5.8,31.3c0.1,0.4,0,0.9-0.4,1
		C54.6,152,54.5,152,54.3,152L54.3,152z"/>
	<path class="st1" d="M121.7,186.3c-17.8,0-34.3-7.1-46.4-20.2c-0.2-0.2-0.2-0.7,0-1.1c0.2-0.2,0.7-0.2,1.1,0
		c11.9,12.7,28,19.7,45.5,19.7s34-7.2,45.7-20c0.2-0.4,0.7-0.4,1.1,0s0.4,0.7,0,1.1C156.6,178.8,139.5,186.3,121.7,186.3
		L121.7,186.3z"/>
	<g>
		<g>
			<path class="st1" d="M57.3,167c-1.6-2.2-1-5.3,1.2-6.9c2.2-1.6,5.4-1,6.9,1.2c1.6,2.2,1,5.4-1.2,6.9
				C61.9,169.8,58.9,169.3,57.3,167L57.3,167z M58,166.5c1.2,1.8,3.7,2.2,5.5,1s2.2-3.7,1-5.5s-3.7-2.2-5.5-1
				C57.3,162.2,56.8,164.7,58,166.5L58,166.5z"/>
			<path class="st1" d="M61.3,169.3c-1.6,0-3.3-0.7-4.3-2.2l0,0c-0.7-1.1-1.1-2.6-0.9-3.9c0.2-1.4,1-2.6,2.2-3.3
				c1.2-0.7,2.5-1.1,3.9-0.9c1.5,0.2,2.6,1,3.3,2.2c1.6,2.3,1,5.5-1.4,7.2C63.4,169.1,62.3,169.3,61.3,169.3L61.3,169.3z
				 M57.4,166.9c1.5,2.2,4.4,2.7,6.6,1.2c2.2-1.5,2.7-4.4,1.2-6.6c-0.7-1.1-1.8-1.7-3.1-2c-1.2-0.2-2.5,0-3.6,0.7
				c-1.1,0.7-1.7,1.8-2,3.1C56.4,164.7,56.7,165.9,57.4,166.9L57.4,166.9L57.4,166.9z M61.3,168.4c-1.4,0-2.7-0.6-3.4-1.8l0,0
				c-0.6-1-0.9-2.1-0.7-3.2c0.2-1.1,0.9-2.1,1.7-2.7c2-1.4,4.5-0.9,5.9,1.1c0.6,1,0.9,2.1,0.7,3.2c-0.2,1.1-0.9,2.1-1.7,2.7
				C62.9,168.1,62.2,168.4,61.3,168.4L61.3,168.4z M58.3,166.4c1.2,1.7,3.6,2.1,5.3,1c0.9-0.6,1.4-1.5,1.6-2.5c0.2-1,0-2-0.6-2.8
				c-1.2-1.7-3.6-2.1-5.3-1c-0.9,0.6-1.4,1.5-1.6,2.5C57.4,164.6,57.6,165.5,58.3,166.4L58.3,166.4L58.3,166.4z"/>
		</g>
		<g>
			<path class="st1" d="M62.6,173.6l7.1-6.4l0.6,0.7l-6.4,5.8l2.1,2.3l-0.7,0.6L62.6,173.6L62.6,173.6z"/>
			<path class="st1" d="M65.4,177.1l-3.1-3.4l7.4-6.6l1,1l-6.4,5.8l2.1,2.3L65.4,177.1L65.4,177.1z M62.9,173.6l2.5,2.7l0.4-0.4
				l-2.1-2.3l6.4-5.8l-0.4-0.4L62.9,173.6L62.9,173.6z"/>
		</g>
		<g>
			<path class="st1" d="M68.5,179.8l-1.1-1l6.4-7l1.1,1c2,1.7,2.1,4.8,0.4,6.8C73.5,181.4,70.4,181.5,68.5,179.8z M74.2,173.4
				l-0.4-0.4l-5.2,5.7l0.4,0.4c1.6,1.5,3.9,1.4,5.4-0.2C76,177.2,75.8,174.9,74.2,173.4z"/>
			<path class="st1" d="M71.7,181.3c-1.2,0-2.3-0.4-3.3-1.2l-1.2-1.1l0.1-0.1l6.5-7.2l1.2,1.1c1,0.9,1.6,2.1,1.6,3.4
				c0,1.4-0.4,2.6-1.2,3.6C74.4,180.7,73,181.3,71.7,181.3L71.7,181.3z M68.7,179.7c1.8,1.7,4.7,1.5,6.4-0.4
				c0.9-0.9,1.2-2.1,1.2-3.3s-0.6-2.3-1.5-3.2l-1-0.9l-6.1,6.8C67.7,178.8,68.7,179.7,68.7,179.7z M71.7,180.3c-1,0-2-0.4-2.7-1.1
				l-0.6-0.5l5.4-6l0.6,0.5c1.6,1.5,1.7,4.1,0.2,5.7c-0.7,0.7-1.7,1.2-2.8,1.4C71.8,180.3,71.8,180.3,71.7,180.3L71.7,180.3z
				 M69.1,178.7l0.2,0.2c0.7,0.6,1.6,1,2.6,1c1,0,1.8-0.5,2.5-1.2c1.4-1.5,1.2-3.7-0.2-5l-0.2-0.2L69.1,178.7L69.1,178.7z"/>
		</g>
		<g>
			<path class="st1" d="M74.7,185.1l5.5-7.7l3.3,2.5l-0.6,0.7l-2.6-1.8l-2,2.7l2.6,1.8l-0.6,0.7l-2.6-1.8l-2,2.7l2.6,1.8l-0.6,0.7
				L74.7,185.1L74.7,185.1z"/>
			<path class="st1" d="M78.2,187.8l-3.7-2.7l5.8-8.1l3.7,2.7l-0.9,1.1l-2.6-1.8l-1.7,2.3l2.6,1.8l-0.9,1.1l-2.6-1.8l-1.7,2.3
				l2.6,1.8L78.2,187.8L78.2,187.8z M75.1,185l2.9,2.2l0.2-0.4l-2.6-1.8l2.2-3.1l2.6,1.8l0.2-0.4l-2.6-1.8l2.2-3.1l2.6,1.8l0.2-0.4
				l-2.9-2.2L75.1,185L75.1,185z"/>
		</g>
		<g>
			<path class="st1" d="M80.6,189.3c-0.1,0-0.2-0.1-0.2-0.2l0.5-0.9c0.1,0.1,0.1,0.1,0.2,0.2c1,0.6,2,0.4,2.6-0.6
				c0.9-1.4-0.6-2.8,0.5-4.7c0.9-1.4,2.5-1.7,3.7-0.9l0,0l-0.5,0.7l0,0c-0.9-0.5-1.8-0.4-2.5,0.6c-0.7,1.4,0.6,2.9-0.5,4.7
				C83.7,189.7,82.1,190.1,80.6,189.3L80.6,189.3z"/>
			<path class="st1" d="M82.2,189.9c-0.5,0-1.1-0.1-1.6-0.5l0,0l0.1-0.2l-0.1,0.1c-0.1,0-0.2-0.1-0.4-0.2l-0.1-0.1l0.7-1.2l0.2,0.4
				c0,0,0.1,0.1,0.2,0.1c0.9,0.5,1.8,0.2,2.3-0.6c0.4-0.6,0.2-1.2,0.1-1.8c-0.1-0.9-0.2-1.7,0.4-2.7c0.9-1.5,2.6-1.8,4.1-1l0.2,0.1
				l-0.7,1.1l-0.2-0.1c-0.4-0.2-0.9-0.2-1.2-0.2c-0.4,0.1-0.7,0.4-1,0.7c-0.4,0.5-0.2,1.1-0.1,1.8c0.1,0.9,0.2,1.8-0.4,2.8
				C84.1,189.4,83.2,189.9,82.2,189.9L82.2,189.9z M80.7,189c1.4,0.7,2.8,0.5,3.6-0.9c0.5-0.9,0.4-1.7,0.2-2.6
				c-0.1-0.7-0.2-1.5,0.2-2.1c0.2-0.5,0.7-0.9,1.2-1c0.5-0.1,1,0,1.5,0.1l0.2-0.4c-1.2-0.6-2.6-0.2-3.3,0.9
				c-0.5,0.9-0.4,1.7-0.2,2.5c0.1,0.7,0.2,1.5-0.2,2.2c-0.6,1.1-1.8,1.4-2.8,0.7c0,0-0.1,0-0.1-0.1L80.7,189
				C80.6,189,80.7,189,80.7,189l-0.1,0.2L80.7,189L80.7,189z"/>
		</g>
		<g>
			<path class="st1" d="M91.4,185.3l-3.8,7.6l-0.9-0.4l3.8-7.6l-1.8-0.9l0.4-0.9l4.5,2.2l-0.4,0.9L91.4,185.3L91.4,185.3z"/>
			<path class="st1" d="M87.8,193.3l-1.2-0.6l3.8-7.6l-1.8-0.9l0.6-1.2l4.9,2.5l-0.6,1.2l-1.8-1L87.8,193.3L87.8,193.3z M87.1,192.4
				l0.5,0.2l3.8-7.6l1.8,1l0.2-0.5l-4.2-2.1l-0.2,0.5l1.8,0.9L87.1,192.4L87.1,192.4z"/>
		</g>
		<g>
			<path class="st1" d="M96.5,196.6l3.1-9l0.9,0.4l-3.1,9C97.3,197,96.5,196.6,96.5,196.6z"/>
			<path class="st1" d="M97.6,197.2l-1.4-0.5l3.2-9.5l1.4,0.5L97.6,197.2z M96.7,196.5l0.5,0.1l2.9-8.6l-0.5-0.1L96.7,196.5z"/>
		</g>
		<g>
			<path class="st1" d="M103.6,192.2l-1.5,6.3l-0.9-0.2l2.3-9.5l2.3,7.5l1.5-6.3l0.9,0.2l-2.3,9.5L103.6,192.2L103.6,192.2z"/>
			<path class="st1" d="M106.1,200.4l-2.3-7.5l-1.4,5.7l-1.4-0.4l2.6-10.4l2.3,7.5l1.4-5.7l1.4,0.4L106.1,200.4L106.1,200.4z
				 M103.6,191.3l2.3,7.5l2.1-8.5l-0.5-0.1l-1.7,6.9l-2.3-7.5l-2.1,8.5l0.5,0.1L103.6,191.3L103.6,191.3z"/>
		</g>
		<g>
			<path class="st1" d="M119,200.9l0.2-4.3l-3.2-0.2l-0.2,4.3h-1l0.6-9.5h1l-0.2,4.3l3.2,0.2l0.2-4.3h1l-0.6,9.5H119z"/>
			<path class="st1" d="M120.2,201.3l-1.4-0.1l0.2-4.3l-2.7-0.1l-0.2,4.3l-1.4-0.1l0.6-10l1.4,0.1l-0.2,4.3l2.7,0.1l0.2-4.3l1.4,0.1
				L120.2,201.3z M119.2,200.8h0.5l0.6-9.1h-0.5l-0.2,4.3l-3.7-0.2l0.2-4.3h-0.5l-0.6,9.1h0.5l0.2-4.3l3.6,0.2L119.2,200.8z"/>
		</g>
		<g>
			<path class="st1" d="M128.5,200.9c-2.7,0.2-5.2-1.8-5.3-4.5c-0.2-2.7,1.8-5.2,4.5-5.3c2.7-0.2,5.2,1.8,5.3,4.5
				C133.3,198.5,131.3,200.8,128.5,200.9z M128.4,200.1c2.2-0.1,3.8-2.1,3.7-4.3c-0.1-2.2-2.1-3.8-4.3-3.7c-2.2,0.1-3.8,2.1-3.7,4.3
				C124.4,198.6,126.2,200.2,128.4,200.1z"/>
			<path class="st1" d="M128.1,201.2c-1.2,0-2.5-0.5-3.3-1.2c-1.1-0.9-1.7-2.2-1.8-3.6c-0.2-2.8,2-5.4,4.8-5.5
				c2.8-0.2,5.4,2,5.5,4.8c0.1,1.4-0.4,2.7-1.2,3.8c-0.9,1.1-2.2,1.7-3.6,1.8l0,0C128.4,201.2,128.3,201.2,128.1,201.2L128.1,201.2z
				 M128.1,191.3c-0.1,0-0.2,0-0.4,0c-2.6,0.2-4.5,2.5-4.4,5c0.1,1.2,0.7,2.5,1.6,3.2c0.9,0.7,2.2,1.2,3.4,1.1l0,0
				c1.2-0.1,2.5-0.7,3.2-1.6c0.9-1,1.2-2.2,1.1-3.4C132.6,193.2,130.5,191.2,128.1,191.3L128.1,191.3z M128.1,200.2
				c-2.2,0-4.1-1.7-4.2-3.9c-0.1-2.3,1.6-4.3,3.9-4.5c1.1-0.1,2.2,0.2,3.1,1c0.9,0.7,1.4,1.7,1.5,2.8c0.1,2.3-1.6,4.3-3.9,4.5l0,0
				C128.3,200.2,128.2,200.2,128.1,200.2L128.1,200.2z M128.1,192.3c-0.1,0-0.2,0-0.2,0c-2.1,0.1-3.6,2-3.4,4.1
				c0.1,2.1,2,3.6,4.1,3.4c2.1-0.1,3.6-2,3.4-4.1c-0.1-1-0.5-2-1.4-2.6C129.9,192.6,129,192.3,128.1,192.3L128.1,192.3z"/>
		</g>
		<g>
			<path class="st1" d="M136.8,199.7l-1.8-9.3l1-0.2l1.7,8.4l3.1-0.6l0.2,1L136.8,199.7L136.8,199.7z"/>
			<path class="st1" d="M136.7,199.9l-2-9.7l1.4-0.2l1.7,8.4l3.1-0.6l0.2,1.4L136.7,199.9L136.7,199.9z M135.2,190.6l1.8,8.8
				l3.6-0.7l-0.1-0.5l-3.1,0.6l-1.7-8.4L135.2,190.6L135.2,190.6z"/>
		</g>
		<g>
			<path class="st1" d="M143.7,198.1L141,189l0.9-0.2l2.5,8.2l3.1-0.9l0.2,0.9L143.7,198.1L143.7,198.1z"/>
			<path class="st1" d="M143.5,198.5l-2.8-9.6l1.4-0.4l2.5,8.2l3.1-0.9l0.4,1.4L143.5,198.5L143.5,198.5z M141.2,189.1l2.6,8.7
				l3.6-1.1l-0.1-0.5l-3.1,0.9l-2.5-8.2L141.2,189.1L141.2,189.1z"/>
		</g>
		<g>
			<path class="st1" d="M150.2,191.6l1.5,3.9l-0.9,0.4l-1.5-3.9l-4.9-3.8l1-0.4l3.9,3.1l0.9-4.9l1-0.4L150.2,191.6L150.2,191.6z"/>
			<path class="st1" d="M150.7,196l-1.6-4.1l-5.2-3.9l1.5-0.6l3.8,2.8l0.7-4.7l1.5-0.6l-1.1,6.4l1.6,4.1L150.7,196L150.7,196z
				 M144.8,188.1l4.7,3.6l1.5,3.8l0.5-0.1l-1.5-3.8l0,0l1-5.8l-0.6,0.1l-0.9,5.2l-4.2-3.2L144.8,188.1L144.8,188.1z"/>
		</g>
		<g>
			<path class="st1" d="M162.8,190.2l-5.2-4.8l1.4,7l-7.6-7l0.9-0.5l5.3,4.9l-1.5-7l0,0l5.2,4.9l-1.5-7l0.9-0.5L162.8,190.2
				L162.8,190.2z"/>
			<path class="st1" d="M159.4,193.1l-8.4-7.6l1.2-0.7l4.9,4.5l-1.4-6.5l0.4-0.2l0.1,0.1l4.7,4.4l-1.4-6.5l1.2-0.7l2.2,11.1
				l-5.2-4.8L159.4,193.1L159.4,193.1z M151.8,185.4l6.9,6.4l-1.4-7l5.2,4.8l-1.8-9.1l-0.5,0.2l1.5,7.6l-5.3-4.9l1.5,7.1l-5.7-5.3
				L151.8,185.4L151.8,185.4z"/>
		</g>
		<g>
			<path class="st1" d="M171.3,184.3c-2.2,1.7-5.3,1.4-7-0.9c-1.7-2.2-1.4-5.3,0.9-7c2.2-1.7,5.3-1.4,7,0.9
				C173.9,179.5,173.5,182.6,171.3,184.3L171.3,184.3z M170.7,183.6c1.7-1.4,2.1-3.8,0.7-5.5c-1.4-1.7-3.8-2.1-5.5-0.7
				c-1.7,1.4-2,3.8-0.6,5.7C166.5,184.6,169,185,170.7,183.6L170.7,183.6z"/>
			<path class="st1" d="M168.2,185.6c-0.2,0-0.4,0-0.6,0c-1.4-0.1-2.6-0.9-3.4-2c-1.7-2.2-1.4-5.5,0.9-7.2c2.2-1.7,5.5-1.4,7.2,0.9
				c0.9,1.1,1.2,2.5,1.1,3.8c-0.1,1.4-0.9,2.6-2,3.4C170.6,185.2,169.5,185.6,168.2,185.6L168.2,185.6z M168.2,175.7
				c-1,0-2.1,0.4-2.9,1c-2.1,1.6-2.5,4.5-0.9,6.6c0.7,1,1.8,1.6,3.2,1.8c1.2,0.1,2.5-0.2,3.4-1l0,0c1-0.7,1.6-1.8,1.8-3.2
				c0.1-1.2-0.2-2.5-1-3.4C171.1,176.4,169.7,175.7,168.2,175.7L168.2,175.7z M168.2,184.6c-0.1,0-0.4,0-0.5,0
				c-1.1-0.1-2.1-0.7-2.8-1.6s-1-2-0.9-3.1c0.1-1.1,0.7-2.1,1.6-2.8c1.8-1.5,4.4-1.1,5.9,0.7c0.7,0.9,1,2,0.9,3.1
				c-0.1,1.1-0.7,2.1-1.6,2.8l0,0C170.1,184.3,169.2,184.6,168.2,184.6L168.2,184.6z M168.2,176.7c-0.9,0-1.6,0.2-2.3,0.7
				c-0.7,0.6-1.2,1.5-1.4,2.5c-0.1,1,0.1,2,0.7,2.8c0.6,0.7,1.5,1.4,2.5,1.5c1,0.1,2-0.1,2.8-0.7l0,0c0.7-0.6,1.4-1.5,1.5-2.5
				c0.1-1-0.1-2-0.7-2.8C170.4,177.2,169.3,176.7,168.2,176.7L168.2,176.7z"/>
		</g>
		<g>
			<path class="st1" d="M180.8,175.6c-1.8,2-5,2.2-7,0.4c-2-1.8-2.2-5-0.2-7c1.8-2,5-2.2,7-0.2C182.5,170.5,182.6,173.5,180.8,175.6
				L180.8,175.6z M180,174.9c1.5-1.6,1.4-4.2-0.2-5.7c-1.6-1.5-4.2-1.4-5.7,0.2c-1.5,1.6-1.4,4.2,0.2,5.7
				C176.1,176.6,178.6,176.5,180,174.9L180,174.9z"/>
			<path class="st1" d="M177.1,177.3c-1.4,0-2.6-0.5-3.4-1.4c-1-1-1.6-2.2-1.7-3.6c0-1.4,0.4-2.7,1.4-3.7c2-2.1,5.2-2.2,7.4-0.4
				c1,1,1.6,2.2,1.7,3.6c0,1.4-0.4,2.7-1.4,3.7l0,0c-1,1-2.2,1.6-3.6,1.7C177.3,177.5,177.2,177.5,177.1,177.3L177.1,177.3z
				 M177.2,167.5c-1.2,0-2.6,0.5-3.4,1.5c-0.9,1-1.4,2.1-1.2,3.4c0,1.2,0.6,2.5,1.5,3.3c1,0.9,2.1,1.4,3.4,1.2
				c1.2,0,2.5-0.6,3.3-1.5l0,0c0.9-1,1.4-2.1,1.2-3.4c0-1.2-0.6-2.5-1.5-3.3C179.4,167.9,178.3,167.5,177.2,167.5L177.2,167.5z
				 M177.2,176.4c-1.1,0-2.1-0.4-2.8-1.1c-0.9-0.7-1.4-1.8-1.4-2.9s0.4-2.2,1.1-2.9c0.7-0.9,1.8-1.4,2.9-1.4c1.1,0,2.2,0.4,3.1,1.1
				c0.9,0.7,1.4,1.8,1.4,2.9c0,1.1-0.4,2.2-1.1,3.1s-1.8,1.4-2.9,1.4C177.2,176.5,177.2,176.5,177.2,176.4L177.2,176.4z
				 M177.2,168.5h-0.1c-1,0-2,0.5-2.6,1.2c-0.7,0.7-1,1.7-1,2.7c0,1,0.5,2,1.2,2.6c0.7,0.7,1.7,1,2.7,1c1,0,2-0.5,2.6-1.2l0,0
				c1.4-1.5,1.4-3.9-0.2-5.3C179,168.9,178.1,168.5,177.2,168.5L177.2,168.5z"/>
		</g>
		<g>
			<path class="st1" d="M187,167.6l-0.9,1.2l-7.9-5.4l0.9-1.2c1.5-2.2,4.4-2.7,6.6-1.2C187.9,162.5,188.5,165.4,187,167.6L187,167.6
				z M179.9,162.7l-0.2,0.5l6.3,4.3l0.2-0.5c1.2-1.7,0.7-4.1-1-5.3C183.5,160.6,181,161,179.9,162.7z"/>
			<path class="st1" d="M186.2,169.1l-8.2-5.7l1-1.4c0.7-1.1,1.8-1.8,3.2-2.1c1.4-0.2,2.6,0,3.7,0.7s1.8,1.8,2.1,3.2
				c0.2,1.4,0,2.6-0.7,3.7L186.2,169.1z M178.6,163.4l7.5,5.2l0.7-1c0.7-1,1-2.2,0.7-3.4c-0.2-1.2-0.9-2.2-1.8-2.9
				c-1-0.7-2.2-1-3.4-0.7c-1.2,0.2-2.2,0.9-2.9,1.8L178.6,163.4L178.6,163.4z M185.9,167.9l-6.6-4.5l0.4-0.6
				c0.6-0.9,1.5-1.5,2.6-1.7c1.1-0.2,2.1,0,3.1,0.6c0.9,0.6,1.5,1.5,1.7,2.6c0.2,1.1,0,2.1-0.6,3.1L185.9,167.9L185.9,167.9z
				 M179.9,163.2l5.9,4.1l0.1-0.2c0.5-0.7,0.7-1.7,0.6-2.7c-0.1-1-0.7-1.7-1.5-2.3c-0.7-0.6-1.7-0.7-2.7-0.6c-1,0.1-1.7,0.7-2.3,1.5
				L179.9,163.2L179.9,163.2z"/>
		</g>
	</g>
	<path class="st1" d="M121.9,207.1c-1.1,0-2.1,0-3.2,0c-46.9-1.7-83.8-41.4-82.1-88.3c0.7-22.9,10.4-43.9,27.2-59.3
		s38.5-23.6,61.2-22.7c46.9,1.7,83.8,41.4,82.1,88.3c-0.9,22.7-10.4,43.9-27.2,59.3C163.9,199.1,143.4,207.1,121.9,207.1
		L121.9,207.1z M118.7,205.5c46.2,1.6,85.2-34.5,86.8-80.6c1.7-46.2-34.5-85.2-80.6-86.8c-46.2-1.7-85.2,34.5-86.8,80.6
		C36.4,164.9,72.5,203.9,118.7,205.5z"/>
	<g>
		<g>
			<path class="st1" d="M52.1,89.7l8,3.6l-0.4,0.9l-8-3.6l-0.9,2L50,92.2l2.1-4.7l0.9,0.4C53,87.9,52.1,89.7,52.1,89.7z"/>
			<path class="st1" d="M59.9,94.6l-8-3.6L51,93l-1.4-0.6l2.3-5.2l1.4,0.6l-0.9,2l8,3.6L59.9,94.6L59.9,94.6z M51.6,90.3l8,3.6
				l0.1-0.4l-8-3.6l0.9-2l-0.4-0.1l-2,4.3l0.4,0.1C50.8,92.2,51.6,90.3,51.6,90.3z"/>
		</g>
		<g>
			<path class="st1" d="M64,86l-3.8-2.2l-1.6,2.8l3.8,2.2l-0.5,0.9l-8.4-4.9l0.5-0.9l3.8,2.2l1.6-2.8L55.7,81l0.5-0.9l8.4,4.9L64,86
				z"/>
			<path class="st1" d="M62.1,90l-8.8-5.2l0.7-1.4l3.8,2.2l1.4-2.3l-3.8-2.2l0.7-1.4l8.8,5.2l-0.7,1.4l-3.8-2.2L59,86.4l3.8,2.2
				L62.1,90L62.1,90z M54,84.6l8,4.7l0.2-0.4l-3.8-2.2l1.8-3.2l3.8,2.2l0.2-0.4l-8-4.7L56,81l3.8,2.2l-2,3.2l-3.8-2.2L54,84.6
				L54,84.6z"/>
		</g>
		<g>
			<path class="st1" d="M66.4,82.5l-7.7-5.9l2.6-3.3l0.7,0.6l-2,2.6l2.7,2.1l2-2.6l0.7,0.6l-2,2.5l2.7,2.1l2-2.6l0.7,0.6L66.4,82.5
				L66.4,82.5z"/>
			<path class="st1" d="M66.5,82.8l-8.2-6.1l2.8-3.8l1.2,0.9l-2,2.6l2.3,1.7l2-2.6l1.2,0.9L63.8,79l2.3,1.7l2-2.6l1.2,0.9L66.5,82.8
				L66.5,82.8z M59,76.6l7.4,5.5l2.2-2.9l-0.4-0.2l-2,2.6L63.1,79l2-2.6l-0.4-0.2l-2,2.6l-3.2-2.3l2-2.6l-0.4-0.2L59,76.6L59,76.6z"
				/>
		</g>
		<g>
			<path class="st1" d="M77.4,70.2L72.6,65l0.4,3.6L69.6,68l4.8,5.2l-0.7,0.6l-6.8-7.4l5.2,1l-0.6-5.2l6.8,7.4L77.4,70.2L77.4,70.2z
				"/>
			<path class="st1" d="M73.6,74.1L66.1,66l5.5,1.1L71,61.5l7.5,8.1l-1.1,1L73,65.8l0.4,3.1l-3.1-0.6l4.4,4.8L73.6,74.1L73.6,74.1z
				 M67.6,66.9l6,6.5l0.4-0.2l-5.2-5.5l3.9,0.7l-0.5-4.1l5.2,5.5l0.4-0.2l-6-6.5l0.5,4.8L67.6,66.9L67.6,66.9z"/>
		</g>
		<g>
			<path class="st1" d="M82.8,66.1c-1.1,0.9-2.8,0.5-3.6-0.6l-4.2-5.9l0.7-0.6l4.2,5.9c0.5,0.7,1.5,0.9,2.2,0.4
				c0.7-0.5,0.9-1.5,0.4-2.2l-4.2-5.9l0.7-0.6l4.2,5.9C84.3,63.8,84.1,65.4,82.8,66.1L82.8,66.1z"/>
			<path class="st1" d="M81.4,66.9c-0.9,0-1.7-0.4-2.3-1.2l-4.4-6.1l1.2-0.9l4.3,6.1c0.4,0.6,1.2,0.7,1.8,0.4
				c0.2-0.2,0.5-0.5,0.5-0.9c0-0.4,0-0.7-0.2-1l-4.3-6.1l1.2-0.9l4.4,6.1c0.9,1.2,0.6,3.1-0.7,3.9l0,0C82.5,66.7,82,66.9,81.4,66.9
				L81.4,66.9z M75.5,59.6l4.1,5.8c0.7,1,2.2,1.2,3.2,0.5l0,0c1.1-0.7,1.4-2.2,0.6-3.2l-4.1-5.8l-0.4,0.2l4.1,5.8
				c0.2,0.4,0.4,0.9,0.4,1.4c-0.1,0.5-0.4,1-0.7,1.2c-0.9,0.6-2,0.4-2.6-0.5l-4.2-5.7L75.5,59.6L75.5,59.6z"/>
		</g>
		<g>
			<path class="st1" d="M87.5,63.1c-0.1,0-0.2,0.1-0.4,0.1l-0.5-0.9c0.1,0,0.2,0,0.4-0.1c1-0.6,1.4-1.6,0.7-2.6
				c-0.7-1.5-2.8-0.9-3.8-2.7c-0.9-1.5-0.2-2.9,1.1-3.8l0,0l0.5,0.9l0,0c-0.9,0.5-1.2,1.5-0.7,2.5c0.7,1.4,2.8,1,3.9,2.8
				C89.5,60.6,89,62.3,87.5,63.1L87.5,63.1z"/>
			<path class="st1" d="M87,63.6l-0.7-1.4h0.4c0,0,0.1,0,0.2-0.1c0.4-0.2,0.7-0.6,0.9-1c0.1-0.4,0-0.9-0.2-1.2
				c-0.4-0.6-1-0.9-1.6-1.1c-0.7-0.4-1.7-0.6-2.3-1.7c-0.9-1.5-0.4-3.2,1.1-4.2l0.2-0.1l0.7,1.2l-0.2,0.1c-0.7,0.5-1,1.4-0.6,2.1
				c0.4,0.6,0.9,0.7,1.6,1.1c0.9,0.4,1.7,0.7,2.3,1.7c0.5,0.7,0.6,1.6,0.4,2.5c-0.2,0.7-0.7,1.5-1.5,1.8l0,0
				c-0.1,0.1-0.2,0.1-0.4,0.1L87,63.6L87,63.6z M87.1,62.6l0.2,0.4c0,0,0,0,0.1,0l0,0c0.6-0.4,1.1-0.9,1.2-1.6
				c0.1-0.6,0.1-1.4-0.4-2c-0.5-0.9-1.4-1.2-2.1-1.5c-0.7-0.2-1.5-0.6-1.8-1.2c-0.6-1-0.2-2.1,0.6-2.7l-0.2-0.4
				c-1.1,0.7-1.5,2.1-0.7,3.3c0.5,0.9,1.2,1.2,2.1,1.5c0.7,0.2,1.5,0.5,1.8,1.4c0.4,0.5,0.4,1.1,0.2,1.7
				C88.1,61.7,87.8,62.2,87.1,62.6L87.1,62.6L87.1,62.6z"/>
		</g>
		<g>
			<path class="st1" d="M92.1,60.6c-0.1,0-0.2,0.1-0.4,0.1l-0.4-0.9c0.1,0,0.2,0,0.4-0.1c1-0.5,1.5-1.5,1-2.6
				c-0.7-1.5-2.8-1.1-3.7-3.1c-0.7-1.5,0-3.1,1.4-3.7l0,0l0.4,0.9l0,0c-0.9,0.4-1.4,1.5-0.9,2.5c0.7,1.5,2.8,1.1,3.7,3.1
				C94.1,58.4,93.6,59.9,92.1,60.6z"/>
			<path class="st1" d="M91.6,61l-0.7-1.5h0.5c0,0,0.1,0,0.2,0c0.4-0.2,0.7-0.5,0.9-1c0.1-0.4,0.1-0.9-0.1-1.2
				c-0.2-0.6-0.9-0.9-1.5-1.2c-0.7-0.4-1.6-0.7-2.2-1.8c-0.7-1.6-0.1-3.3,1.5-4.1l0.4-0.1l0.6,1.4l-0.4,0.1
				c-0.4,0.1-0.7,0.5-0.9,0.9c-0.1,0.4-0.1,0.9,0.1,1.2c0.2,0.6,0.9,0.9,1.5,1.1c0.7,0.4,1.7,0.9,2.2,2c0.4,0.9,0.5,1.7,0.1,2.5
				c-0.2,0.7-0.9,1.4-1.7,1.7l0,0l0.1-0.2l0.1,0.2c-0.1,0-0.2,0.1-0.5,0.1L91.6,61L91.6,61z M91.9,60.4l0.1,0.2L91.9,60.4
				c0.7-0.4,1.2-0.9,1.4-1.5c0.2-0.6,0.1-1.4-0.1-2c-0.5-1-1.2-1.4-2-1.7c-0.7-0.4-1.4-0.6-1.7-1.5c-0.2-0.5-0.2-1.1-0.1-1.6
				c0.1-0.5,0.5-0.9,0.9-1.1v-0.2c-1.2,0.6-1.6,2-1.1,3.2c0.5,1,1.2,1.2,2,1.6c0.7,0.4,1.4,0.6,1.7,1.5c0.2,0.6,0.4,1.1,0.1,1.7
				c-0.2,0.5-0.6,1-1.1,1.2c0,0,0,0-0.1,0L91.9,60.4C91.9,60.5,91.9,60.4,91.9,60.4L91.9,60.4z"/>
		</g>
		<g>
			<path class="st1" d="M101,57c-2.7,0.9-5.5-0.6-6.4-3.2c-0.9-2.6,0.6-5.5,3.2-6.4c2.7-0.9,5.5,0.6,6.4,3.2
				C105.2,53.4,103.7,56.2,101,57L101,57z M98.2,48.3c-2.1,0.7-3.3,2.9-2.6,5.2c0.7,2.1,2.9,3.3,5.2,2.6c2.1-0.7,3.3-2.9,2.6-5.2
				C102.6,48.8,100.4,47.7,98.2,48.3L98.2,48.3z"/>
			<path class="st1" d="M99.5,57.5c-2.2,0-4.3-1.5-5-3.7c-0.9-2.8,0.6-5.8,3.4-6.8c1.4-0.5,2.8-0.4,4.1,0.4c1.2,0.7,2.2,1.7,2.7,3.1
				c0.9,2.8-0.6,5.8-3.4,6.8l0,0C100.7,57.4,100,57.5,99.5,57.5L99.5,57.5z M99.5,47.5c-0.5,0-1,0.1-1.5,0.2c-2.6,0.9-3.9,3.6-3.1,6
				c0.9,2.5,3.6,3.9,6,3.1l0,0c2.6-0.9,3.9-3.6,3.1-6c-0.4-1.2-1.2-2.2-2.5-2.8C101,47.6,100.3,47.5,99.5,47.5L99.5,47.5z
				 M99.5,56.5c-1.8,0-3.6-1.1-4.1-2.9c-0.4-1.1-0.2-2.3,0.2-3.3c0.5-1,1.5-1.8,2.5-2.2c1.1-0.4,2.2-0.2,3.3,0.2
				c1,0.5,1.8,1.5,2.2,2.6c0.7,2.2-0.5,4.7-2.7,5.4C100.4,56.5,99.9,56.5,99.5,56.5L99.5,56.5z M99.5,48.4c-0.4,0-0.7,0-1.2,0.2l0,0
				c-1,0.4-1.7,1-2.2,1.8c-0.5,0.9-0.5,2-0.2,2.9c0.6,2,2.8,3.1,4.8,2.5c2-0.6,3.1-2.8,2.5-4.8c-0.4-1-1-1.7-1.8-2.2
				C100.7,48.6,100,48.4,99.5,48.4z"/>
		</g>
		<g>
			<path class="st1" d="M117.6,50.4l0.9-1.8l1.1-0.1l-1.4,2.8l1.5,2l-1.1,0.1l-0.7-1.1c-0.6,1-1.6,1.5-2.6,1.6
				c-1.8,0.1-3.6-1.1-3.7-3.1c-0.1-1.7,1-3.2,2.7-3.6l-2.2-3.1l4.7-0.5l0.1,1l-3.1,0.2L117.6,50.4L117.6,50.4z M117.1,51.5l-2.3-3.2
				h-0.1c-1.4,0.1-2.2,1.4-2.1,2.6c0.1,1.4,1.4,2.2,2.6,2.1C116,53,116.6,52.4,117.1,51.5L117.1,51.5z"/>
			<path class="st1" d="M114.9,54.3c-1.8,0-3.4-1.4-3.6-3.3c-0.1-1.7,0.9-3.2,2.5-3.8l-2.2-3.1l5.4-0.5l0.1,1.5l-2.8,0.2l3.3,4.5
				l0.7-1.6l1.7-0.1l-1.5,3.2l1.6,2.2l-1.7,0.1l-0.6-0.9c-0.6,0.9-1.5,1.4-2.6,1.5C115.2,54.2,115,54.3,114.9,54.3L114.9,54.3z
				 M112.4,44.5l2.1,2.9l-0.4,0.1c-1.6,0.4-2.6,1.7-2.5,3.3c0.1,1.7,1.7,2.9,3.4,2.8c1-0.1,1.8-0.6,2.3-1.5l0.2-0.4l1,1.2h0.5
				l-1.2-1.7l1.2-2.6h-0.5l-1,2.1l-4.3-6l3.2-0.4v-0.4L112.4,44.5L112.4,44.5z M114.9,53.2c-1.4,0-2.5-1-2.6-2.3
				c-0.1-1.5,1-2.7,2.3-2.8h0.4l2.5,3.4l-0.1,0.1c-0.5,1-1.2,1.6-2.2,1.7C115,53.2,114.9,53.2,114.9,53.2L114.9,53.2z M114.7,48.6
				L114.7,48.6c-1.1,0.1-2,1.1-1.8,2.3c0.1,1.2,1.1,2,2.3,1.8c0.7-0.1,1.4-0.5,1.7-1.2L114.7,48.6L114.7,48.6z"/>
		</g>
		<g>
			<path class="st1" d="M127.9,49.2l-0.4,4.4l-1-0.1l0.9-9.7l4.2,0.4l-0.1,1l-3.2-0.2l-0.2,3.4l3.2,0.2l-0.1,1L127.9,49.2
				L127.9,49.2z"/>
			<path class="st1" d="M127.8,53.8l-1.5-0.1l0.9-10.2l4.7,0.4l-0.1,1.5l-3.2-0.2l-0.2,2.8l3.2,0.2l-0.1,1.5l-3.2-0.1L127.8,53.8
				L127.8,53.8z M126.8,53.2h0.4l0.4-4.4l3.2,0.2v-0.4l-3.2-0.2l0.4-3.9l3.2,0.2v-0.4l-3.7-0.4L126.8,53.2L126.8,53.2z"/>
		</g>
		<g>
			<path class="st1" d="M136.3,51.6l2.1,3.6l-1.2-0.2l-2.1-3.4l-0.6,2.9l-1-0.1l1.8-9.6l1.5,0.2c1.8,0.4,3.1,2.1,2.7,3.9
				C139.1,50.5,137.9,51.6,136.3,51.6L136.3,51.6z M136.7,46l-0.5-0.1l-0.9,4.7l0.5,0.1c1.4,0.2,2.6-0.6,2.8-1.8
				C138.7,47.5,137.9,46.2,136.7,46L136.7,46z"/>
			<path class="st1" d="M138.9,55.6l-2-0.4l-1.7-2.9l-0.5,2.6l-1.6-0.4l2-10.1l1.7,0.4c2,0.4,3.2,2.3,2.8,4.3
				c-0.2,1.6-1.5,2.7-2.9,2.9L138.9,55.6L138.9,55.6z M137.1,54.7l0.6,0.1l-2-3.4h0.5c1.5,0,2.7-1.1,2.9-2.6
				c0.4-1.7-0.7-3.3-2.5-3.7l-1.2-0.2l-1.7,9l0.4,0.1l1.7-8.6l0.7,0.1c1.5,0.2,2.3,1.7,2.1,3.1c-0.2,1.5-1.7,2.5-3.1,2.1l-0.7-0.1
				L137.1,54.7L137.1,54.7z M135.4,50.4h0.2c1.1,0.2,2.3-0.5,2.5-1.7c0.2-1.1-0.5-2.3-1.7-2.5l0,0h-0.2L135.4,50.4L135.4,50.4z"/>
		</g>
		<g>
			<path class="st1" d="M145.9,55.9l-4.3-1.4l-1,1.2l-1-0.4l6.8-8.4l0.6,10.7l-1-0.4L145.9,55.9L145.9,55.9z M142.1,54l3.8,1.2
				l-0.2-5.5L142.1,54z"/>
			<path class="st1" d="M147.2,58.1l-1.5-0.5l-0.1-1.5l-4.1-1.2l-1,1.2l-1.5-0.5l7.4-9.2C146.5,46.3,147.2,58.1,147.2,58.1z
				 M146.2,57.3l0.5,0.1l-0.6-9.7l-6,7.5l0.5,0.1l1-1.2l4.7,1.5V57.3L146.2,57.3z M146.1,55.4l-4.5-1.5l4.2-5.3
				C145.7,48.8,146.1,55.4,146.1,55.4z M142.4,53.8l3.1,1l-0.2-4.5L142.4,53.8L142.4,53.8z"/>
		</g>
		<g>
			<path class="st1" d="M152.3,53l-2.7,6l-0.9-0.4l4.2-9.1l0.9,8l2.7-6l0.9,0.4l-4.2,9.1L152.3,53L152.3,53z"/>
			<path class="st1" d="M153,62l-0.9-8l-2.5,5.4l-1.4-0.6l4.7-10.2l0.9,8l2.5-5.4l1.4,0.6L153,62z M152.4,52l0.9,8l3.7-8l-0.4-0.1
				l-3.1,6.6l-0.9-8l-3.7,8l0.4,0.1L152.4,52L152.4,52z"/>
		</g>
		<g>
			<path class="st1" d="M159.5,64.3v-5l-0.6,0.4l-2,3.2l-0.9-0.5l5-8.4l0.9,0.5l-2.2,3.6l4.3-2.3l1,0.6l-4.7,2.5v6.1L159.5,64.3
				L159.5,64.3z"/>
			<path class="st1" d="M160.7,65.3l-1.5-0.9v-4.7l-0.1,0.1l-2,3.3l-1.2-0.7l5.3-8.8l1.2,0.7l-1.8,2.9l3.6-2l1.5,0.9l-4.9,2.6
				L160.7,65.3L160.7,65.3z M159.8,64l0.4,0.2v-5.8l4.3-2.3l-0.5-0.2l-5,2.7l2.6-4.2l-0.4-0.2l-4.7,7.9l0.4,0.2l1.8-3.1l1.1-0.6V64
				L159.8,64z"/>
		</g>
		<g>
			<path class="st1" d="M173.3,71.5l-2.7-2.5l0.6-0.7l3.7,3.4c-2,1.5-4.7,1.4-6.5-0.2c-2.1-1.8-2.2-5-0.4-7.1c1.8-2.1,5-2.2,7.1-0.4
				c1,0.9,1.6,2.2,1.7,3.6h-1c0-1.1-0.5-2.1-1.4-2.8c-1.7-1.5-4.3-1.4-5.8,0.2c-1.5,1.7-1.4,4.3,0.2,5.8
				C170.3,71.8,171.9,72,173.3,71.5L173.3,71.5z"/>
			<path class="st1" d="M171.9,73c-1.2,0-2.6-0.5-3.6-1.4c-2.2-2-2.3-5.4-0.4-7.5c2-2.2,5.4-2.3,7.5-0.4c1.1,1,1.7,2.2,1.7,3.7v0.2
				l-1.5,0.1v-0.2c-0.1-1-0.5-2-1.2-2.6c-1.6-1.4-3.9-1.2-5.4,0.2c-1.4,1.6-1.2,3.9,0.2,5.4c0.9,0.9,2.2,1.1,3.4,0.9l-2.6-2.3l1-1.2
				l4.2,3.8l-0.2,0.2C174.3,72.6,173,73,171.9,73L171.9,73z M171.9,62.9c-1.4,0-2.6,0.5-3.6,1.6c-1.7,2-1.6,5,0.4,6.8
				c1.6,1.5,4.1,1.6,5.9,0.5l-3.3-2.9l-0.2,0.4l2.8,2.6l-0.4,0.1c-1.5,0.5-3.2,0.2-4.3-0.9c-1.7-1.6-2-4.3-0.4-6.1s4.3-2,6.1-0.4
				c0.7,0.7,1.2,1.7,1.4,2.7h0.5c-0.1-1.2-0.6-2.2-1.6-3.1C174.3,63.3,173,62.8,171.9,62.9L171.9,62.9z"/>
		</g>
		<g>
			<path class="st1" d="M177.5,76l-0.6,4.1l-0.9-1l0.6-4.1l-2.3,2l-0.6-0.7l7.5-6.3l1,1.1c1.2,1.5,1,3.6-0.4,4.8
				C180.4,76.8,178.7,76.9,177.5,76L177.5,76z M181.3,71.7l-0.4-0.4l-3.7,3.1l0.4,0.4c0.9,1,2.3,1.1,3.4,0.2
				C182,74.2,182.1,72.8,181.3,71.7z"/>
			<path class="st1" d="M177,80.6l-1.2-1.5l0.5-3.4l-2,1.7l-1-1.1l7.9-6.6l1.1,1.4c0.6,0.7,1,1.7,0.9,2.7c-0.1,1-0.5,1.8-1.2,2.5
				c-1.2,1-2.8,1.1-4.2,0.4L177,80.6L177,80.6z M176.2,78.9l0.4,0.5l0.6-3.9l0.4,0.2c1.1,0.9,2.7,0.9,3.8-0.1c0.6-0.5,1-1.2,1.1-2.1
				c0.1-0.9-0.1-1.6-0.7-2.2l-0.7-1l-7,5.9l0.2,0.4l6.8-5.7l0.5,0.6c0.5,0.5,0.7,1.2,0.6,2c0,0.7-0.4,1.4-1,1.8
				c-1.1,1-2.8,0.7-3.8-0.4l-0.5-0.6L176.2,78.9L176.2,78.9z M177.6,74.5l0.1,0.2c0.7,0.9,2.1,1,2.9,0.2c0.5-0.4,0.7-0.9,0.7-1.5
				c0-0.6-0.1-1.1-0.5-1.6l0,0l-0.1-0.2L177.6,74.5L177.6,74.5z"/>
		</g>
		<g>
			<path class="st1" d="M178.4,82.2l8-5.5l0.6,0.7l-8,5.5L178.4,82.2z"/>
			<path class="st1" d="M178.9,83.5l-0.9-1.2l8.4-5.9l0.9,1.2L178.9,83.5z M178.8,82.4l0.2,0.4l7.5-5.3l-0.2-0.4L178.8,82.4z"/>
		</g>
		<g>
			<path class="st1" d="M180.8,85.8l8.4-4.9l0.5,0.9l-7.5,4.4l1.6,2.8l-0.9,0.5L180.8,85.8L180.8,85.8z"/>
			<path class="st1" d="M182.9,89.8l-2.5-4.1l8.8-5.3l0.7,1.2l-7.5,4.4l1.6,2.8L182.9,89.8L182.9,89.8z M181.1,85.9l1.8,3.2l0.4-0.2
				l-1.6-2.8l7.5-4.4l-0.2-0.4L181.1,85.9L181.1,85.9z"/>
		</g>
		<g>
			<path class="st1" d="M183.8,91.3l8.8-4.2l0.4,0.9l-8,3.7l1.4,2.9l-0.9,0.4L183.8,91.3z"/>
			<path class="st1" d="M185.6,95.5l-2.1-4.3l9.3-4.4l0.6,1.4l-8,3.7l1.4,2.9L185.6,95.5L185.6,95.5z M184.2,91.6l1.6,3.3l0.4-0.2
				l-1.4-2.9l8-3.7l-0.2-0.4L184.2,91.6L184.2,91.6z"/>
		</g>
	</g>
	<g>
		<path class="st1" d="M106.3,160.4v4.2h-3.1v-4.2l-3.3-6.1h3.3l1.5,2.8l1.5-2.8h3.3L106.3,160.4L106.3,160.4z"/>
		<path class="st1" d="M110.7,164.6v-10.2h6.5v3.1h-3.4v1.2h3.4v1.6h-3.4v1.4h3.4v3.1h-6.5V164.6z"/>
		<path class="st1" d="M123.8,163.9h-2.3l-0.2,0.5H118l4.5-10.6l4.5,10.6h-3.2L123.8,163.9L123.8,163.9z M121.9,162.7h1.4l-0.7-1.8
			L121.9,162.7L121.9,162.7z"/>
		<path class="st1" d="M134.1,161.1l2.9,3.3H133l-1.7-2v2h-3.1v-10.2h3.8c2.1,0,3.8,1.7,3.8,3.8
			C135.9,159.4,135.2,160.5,134.1,161.1L134.1,161.1z M131.9,157.2h-0.6v2.2h0.6c0.6,0,1.1-0.5,1.1-1.1
			C133,157.7,132.5,157.2,131.9,157.2L131.9,157.2z"/>
		<path class="st1" d="M138.7,164.7c-0.5,0-1,0-1.4-0.1V162c0.1,0,0.2,0,0.2,0c0.6,0,1.1-0.5,1.1-1.1c0-1-1.2-1.8-1.2-3.6
			c0-2,1.1-3.3,3.3-3.3c0.4,0,0.7,0,1,0.1v2.5c-0.1,0-0.1,0-0.1,0c-0.5,0-1,0.4-1,1c0,0.9,1.2,1.6,1.2,3.6
			C142.3,163.1,141,164.7,138.7,164.7L138.7,164.7z"/>
	</g>
	<path class="st1" d="M121.8,181.6L121.8,181.6c-0.4,0-0.7-0.4-0.7-0.7l0.1-9.3c0-0.4,0.4-0.7,0.7-0.7l0,0c0.4,0,0.7,0.4,0.7,0.7
		l-0.1,9.3C122.5,181.3,122.2,181.6,121.8,181.6z"/>
	<path class="st1" d="M112.4,179.5h-0.1c-0.4-0.1-0.7-0.5-0.6-0.9l1.4-7.6c0.1-0.4,0.5-0.7,0.9-0.6c0.4,0.1,0.7,0.5,0.6,0.9
		l-1.4,7.6C113.2,179.3,112.8,179.5,112.4,179.5L112.4,179.5z"/>
	<path class="st1" d="M104.3,176.5c-0.1,0-0.1,0-0.2,0c-0.4-0.1-0.6-0.5-0.5-1l1.8-5.5c0.1-0.4,0.5-0.6,1-0.5c0.5,0.1,0.6,0.5,0.5,1
		l-1.8,5.5C105,176.2,104.6,176.5,104.3,176.5z"/>
	<path class="st1" d="M98,172.2c-0.1,0-0.2,0-0.4-0.1c-0.4-0.2-0.5-0.6-0.2-1l1.5-2.6c0.2-0.4,0.6-0.5,1-0.2c0.4,0.2,0.5,0.6,0.2,1
		l-1.5,2.6C98.4,172.1,98.2,172.2,98,172.2L98,172.2z"/>
	<path class="st1" d="M131.1,179.5c-0.4,0-0.6-0.2-0.7-0.6l-1.4-7.6c-0.1-0.4,0.2-0.7,0.6-0.9c0.4-0.1,0.7,0.2,0.9,0.6l1.4,7.6
		c0.1,0.4-0.2,0.7-0.6,0.9C131.1,179.5,131.1,179.5,131.1,179.5L131.1,179.5z"/>
	<path class="st1" d="M139.2,176.5c-0.4,0-0.6-0.2-0.7-0.5l-1.8-5.5c-0.1-0.4,0.1-0.9,0.5-1c0.4-0.1,0.9,0.1,1,0.5l1.8,5.5
		c0.1,0.4-0.1,0.9-0.5,1C139.5,176.5,139.4,176.5,139.2,176.5z"/>
	<path class="st1" d="M145.6,172.2c-0.2,0-0.5-0.1-0.6-0.4l-1.5-2.6c-0.2-0.4-0.1-0.9,0.2-1c0.4-0.2,0.9-0.1,1,0.2l1.5,2.6
		c0.2,0.4,0.1,0.9-0.2,1C145.9,172.1,145.7,172.2,145.6,172.2L145.6,172.2z"/>
	<path class="st1" d="M172.4,160.9h-13.9c-0.4,0-0.7-0.4-0.7-0.7s0.4-0.7,0.7-0.7h13.9c0.4,0,0.7,0.4,0.7,0.7
		S172.8,160.9,172.4,160.9z"/>
	<path class="st1" d="M85.2,160.9H71.3c-0.4,0-0.7-0.4-0.7-0.7s0.4-0.7,0.7-0.7h13.9c0.4,0,0.7,0.4,0.7,0.7S85.7,160.9,85.2,160.9z"
		/>
	<path class="st1" d="M131.3,69.3c0.1-0.2,0.2-0.5,0.1-0.7c-0.1-0.2-0.4-0.4-0.7-0.4h-6.1c1.2-2,2.2-3.4,2.3-3.7
		c0.2-0.4,0.1-0.9-0.2-1c-0.4-0.2-0.9-0.1-1,0.2c0,0-1.4,2.1-2.8,4.4h-9.8c-0.2,0-0.5,0.1-0.7,0.4c-0.1,0.2-0.1,0.6,0.1,0.7
		l8.7,10.7v7.6l0,0c0,0.4-0.4,3.1-3.7,3.2c-0.4,0-0.7,0.4-0.7,0.7c0,0.4,0.4,0.7,0.7,0.7l0,0l0,0l0,0h8.7c0.4,0,0.7-0.4,0.7-0.7
		c0-0.4-0.4-0.7-0.7-0.7c-3.1-0.1-3.6-2.5-3.6-3.1v-7.9L131.3,69.3L131.3,69.3z M129,69.7l-7.2,8.8l-2.3-2.8c0.1,0,0.1-0.1,0.2-0.2
		c0.5-0.7,2.2-3.3,3.8-5.9L129,69.7L129,69.7z M121.8,69.7c-1.4,2.2-2.7,4.2-3.2,4.9l-4.1-4.9H121.8z M121.2,90.8
		c0.2-0.2,0.5-0.5,0.6-0.9c0.1,0.2,0.4,0.6,0.6,0.9H121.2L121.2,90.8z"/>
	<g>
		<path class="st1" d="M111.6,90.3c-0.4,0-0.7-0.4-0.7-0.7s0.4-0.7,0.7-0.7c1.6,0,2.8-1.2,2.8-2.8s-1.2-2.8-2.8-2.8
			s-2.8,1.2-2.8,2.8c0,0.4-0.4,0.7-0.7,0.7s-0.7-0.4-0.7-0.7c0-2.3,2-4.3,4.3-4.3s4.3,2,4.3,4.3S113.9,90.2,111.6,90.3L111.6,90.3z"
			/>
		<path class="st1" d="M111.6,90.3H68.5c-0.4,0-0.7-0.4-0.7-0.7s0.4-0.7,0.7-0.7h43.1c0.4,0,0.7,0.4,0.7,0.7S112,90.3,111.6,90.3z"
			/>
	</g>
	<g>
		<path class="st1" d="M93.6,163.4c-2.3,0-4.3-2-4.3-4.3c0-0.4,0.4-0.7,0.7-0.7s0.7,0.4,0.7,0.7c0,1.6,1.2,2.8,2.8,2.8
			s2.8-1.2,2.8-2.8s-1.2-2.8-2.8-2.8c-0.4,0-0.7-0.4-0.7-0.7s0.4-0.7,0.7-0.7c2.3,0,4.3,2,4.3,4.3C98,161.5,96,163.3,93.6,163.4
			L93.6,163.4z"/>
		<path class="st1" d="M93.6,156.2H67.4c-0.4,0-0.7-0.4-0.7-0.7s0.4-0.7,0.7-0.7h26.3c0.4,0,0.7,0.4,0.7,0.7S94,156.2,93.6,156.2z"
			/>
	</g>
	<g>
		<path class="st1" d="M150.2,163.4c-2.3,0-4.3-2-4.3-4.3c0-2.3,2-4.3,4.3-4.3c0.4,0,0.7,0.4,0.7,0.7s-0.4,0.7-0.7,0.7
			c-1.6,0-2.8,1.2-2.8,2.8s1.2,2.8,2.8,2.8s2.8-1.2,2.8-2.8c0-0.4,0.4-0.7,0.7-0.7c0.4,0,0.7,0.4,0.7,0.7
			C154.6,161.5,152.6,163.4,150.2,163.4L150.2,163.4z"/>
		<path class="st1" d="M176.5,156.2h-26.3c-0.4,0-0.7-0.4-0.7-0.7s0.4-0.7,0.7-0.7h26.3c0.4,0,0.7,0.4,0.7,0.7
			C177.2,155.8,177,156.2,176.5,156.2z"/>
	</g>
	<path class="st1" d="M97.2,85.8H72.6c-0.4,0-0.7-0.4-0.7-0.7s0.4-0.7,0.7-0.7h24.7c0.4,0,0.7,0.4,0.7,0.7S97.7,85.8,97.2,85.8z"/>
	<g>
		<path class="st1" d="M132.1,90.3c-2.3,0-4.3-2-4.3-4.3s2-4.3,4.3-4.3c2.3,0,4.3,2,4.3,4.3c0,0.4-0.4,0.7-0.7,0.7s-0.7-0.4-0.7-0.7
			c0-1.6-1.2-2.8-2.8-2.8s-2.8,1.2-2.8,2.8s1.2,2.8,2.8,2.8c0.4,0,0.7,0.4,0.7,0.7S132.5,90.3,132.1,90.3L132.1,90.3z"/>
		<path class="st1" d="M175.2,90.3h-43.1c-0.4,0-0.7-0.4-0.7-0.7s0.4-0.7,0.7-0.7h43.1c0.4,0,0.7,0.4,0.7,0.7S175.6,90.3,175.2,90.3
			z"/>
	</g>
	<path class="st1" d="M171.1,85.8h-24.7c-0.4,0-0.7-0.4-0.7-0.7s0.4-0.7,0.7-0.7h24.7c0.4,0,0.7,0.4,0.7,0.7S171.4,85.8,171.1,85.8z
		"/>
	<path class="st1" d="M107,80.1c-0.1,0-0.4,0-0.5-0.2l-8.4-7.6c-0.4-0.2-0.4-0.7,0-1.1c0.2-0.4,0.7-0.4,1.1,0l8.4,7.6
		c0.4,0.2,0.4,0.7,0,1.1C107.4,80.1,107.3,80.3,107,80.1L107,80.1z"/>
	<path class="st1" d="M103.2,83.3c-0.1,0-0.2,0-0.4-0.1l-13.1-7.4c-0.4-0.2-0.5-0.6-0.2-1c0.2-0.4,0.6-0.5,1-0.2l13.1,7.4
		c0.4,0.2,0.5,0.6,0.2,1C103.7,83.2,103.5,83.3,103.2,83.3z"/>
	<path class="st1" d="M111.2,77.7c-0.2,0-0.5-0.1-0.6-0.4l-4.4-6.4c-0.2-0.4-0.1-0.9,0.2-1.1c0.4-0.2,0.9-0.1,1.1,0.2l4.4,6.4
		c0.2,0.4,0.1,0.9-0.2,1.1C111.5,77.7,111.3,77.7,111.2,77.7L111.2,77.7z"/>
	<g>
		<path class="st1" d="M136.5,80.1c-0.2,0-0.4-0.1-0.5-0.2c-0.2-0.4-0.2-0.7,0-1.1l8.4-7.6c0.4-0.2,0.7-0.2,1.1,0
			c0.4,0.2,0.2,0.7,0,1.1l-8.4,7.6C136.9,80.1,136.8,80.1,136.5,80.1L136.5,80.1z"/>
		<path class="st1" d="M140.5,83.3c-0.2,0-0.5-0.1-0.6-0.4c-0.2-0.4-0.1-0.9,0.2-1l13.1-7.4c0.4-0.2,0.9-0.1,1,0.2
			c0.2,0.4,0.1,0.9-0.2,1l-13.1,7.4C140.7,83.3,140.6,83.3,140.5,83.3z"/>
		<path class="st1" d="M132.5,77.7c-0.1,0-0.2,0-0.4-0.1c-0.4-0.2-0.4-0.7-0.2-1.1l4.4-6.4c0.2-0.4,0.7-0.4,1.1-0.2
			c0.4,0.2,0.4,0.7,0.2,1.1l-4.4,6.4C133,77.6,132.7,77.7,132.5,77.7L132.5,77.7z"/>
	</g>
	<path class="st1" d="M76.1,80c-0.2,0-0.4-0.1-0.5-0.2c-0.2-0.2-0.4-0.7,0-1.1c12.2-12.9,28.6-20,46.2-20s34,7.1,46.2,20
		c0.2,0.2,0.2,0.7,0,1.1c-0.2,0.2-0.7,0.2-1.1,0C155,67.2,139,60.2,121.8,60.2s-33.2,6.9-45.1,19.5C76.6,79.9,76.3,80,76.1,80z"/>
</g>
</svg>
