<svg xmlns="http://www.w3.org/2000/svg" viewBox="0 0 95 79.33"><defs><style>.cls-1{fill:#8f2833;}</style></defs><title>audio</title><g id="Layer_2" data-name="Layer 2"><g id="Layer_1-2" data-name="Layer 1"><path class="cls-1" d="M46.6.76,20.2,22.36,5.4,23.76A6,6,0,0,0,0,29.66v20a5.82,5.82,0,0,0,5.4,5.9L20.2,57l26.4,21.6A3.3,3.3,0,0,0,52,76V3.26A3.32,3.32,0,0,0,46.6.76Z"/><path class="cls-1" d="M71.5,15.56a2.09,2.09,0,0,0-3-.3l-3.6,3.2a2,2,0,0,0-.2,2.8,29.36,29.36,0,0,1,0,36.6,2,2,0,0,0,.2,2.8l3.6,3.2a2,2,0,0,0,3-.3A38.42,38.42,0,0,0,80,39.46,37.3,37.3,0,0,0,71.5,15.56Z"/><path class="cls-1" d="M82.5,5.36a2.06,2.06,0,0,0-2.9-.2L76,8.46a2,2,0,0,0-.2,2.8,44.36,44.36,0,0,1,0,56.6,2,2,0,0,0,.2,2.8L79.6,74a2,2,0,0,0,2.9-.2A53.08,53.08,0,0,0,95,39.46,52.54,52.54,0,0,0,82.5,5.36Z"/></g></g></svg>