<svg viewBox="0 0 246.51 83.32" xmlns="http://www.w3.org/2000/svg" xmlns:xlink="http://www.w3.org/1999/xlink"><radialGradient id="a" cx="202.51" cy="21.31" gradientUnits="userSpaceOnUse" r="87.25"><stop offset="0" stop-color="#d4c29c"/><stop offset="1" stop-color="#745948"/></radialGradient><radialGradient id="b" cx="202.51" cy="21.31" r="87.25" xlink:href="#a"/><radialGradient id="c" cx="202.5" cy="21.31" r="87.24" xlink:href="#a"/><path d="m88.78 23.67c-4 1.08-7.57-1.23-9.47-4.7-3.44-6.27 1.85-17.38 14.69-17.48 20-.15 38.64 23 81.57 21 0 0-1 1.8-1.47 2.6-19.32-.1-32.43-.78-54.71-10.22-11.69-4.97-33.96-14.27-36.68-.5-1.51 7.68 6.07 9.3 6.07 9.3z" fill="#231f20" fill-rule="evenodd"/><path d="m87 22.88a1.49 1.49 0 0 1 -.51-1.38 1.9 1.9 0 0 1 2.1-1.6 1.88 1.88 0 0 1 1.71 1.94 2.09 2.09 0 0 1 -1.52 1.83 7.27 7.27 0 0 1 -7.78-3.21" fill="#231f20" fill-rule="evenodd"/><path d="m87 21.68a1.48 1.48 0 0 1 -.51-1.37 1.9 1.9 0 0 1 2.1-1.6 1.87 1.87 0 0 1 1.71 1.94 2.11 2.11 0 0 1 -1.52 1.83 7.29 7.29 0 0 1 -7.78-3.22" fill="none" stroke="#231f20" stroke-miterlimit="10" stroke-width=".6"/><g fill="#e9e3d5"><path d="m156.92 44.72c-.35-.06-.92-.33-1.93-1.94l-4.19-6.78 3.49-4.34.18-.23c.37-.47 1.24-1.58 1.57-1.61a.47.47 0 0 0 .48-.48v-.53a.47.47 0 0 0 -.48-.48 8.46 8.46 0 0 0 -.87 0 8.23 8.23 0 0 1 -1.57 0 8.27 8.27 0 0 0 -.86 0 .47.47 0 0 0 -.48.48v.53a.5.5 0 0 0 .25.43.32.32 0 0 1 .11.26 1.69 1.69 0 0 1 -.52 1.11l-2.89 3.72c0-1.3 0-2.58 0-3.89 0-1 .14-1.11.34-1.16a.48.48 0 0 0 .37-.47v-.53a.48.48 0 0 0 -.48-.48c-.31 0-.62 0-.93 0a9.65 9.65 0 0 1 -1.7 0c-.31 0-.61 0-.91 0a.47.47 0 0 0 -.48.48v.53a.48.48 0 0 0 .39.48c.28.05.38.43.38 1.45 0 .64 0 1.78.06 3.09 0 1.76.09 3.95.09 5.64v3.5c0 .86-.23 1.26-.4 1.27a.48.48 0 0 0 -.46.48v.54a.49.49 0 0 0 .49.48h.91a9.65 9.65 0 0 1 1.7 0h.93a.49.49 0 0 0 .48-.48v-.54a.48.48 0 0 0 -.47-.48c-.18 0-.38-.48-.38-1.27 0-1.54 0-3.08 0-4.63l3.27 5.31a1.24 1.24 0 0 1 .28.59.5.5 0 0 0 -.33.46v.56a.49.49 0 0 0 .48.48h1a11.92 11.92 0 0 1 1.89 0h1a.48.48 0 0 0 .48-.48v-.59a.49.49 0 0 0 -.29-.48z"/><path d="m143.24 28.35c-.3 0-.6 0-.9 0a8.87 8.87 0 0 1 -1.63 0c-.3 0-.6 0-.89 0a.47.47 0 0 0 -.48.48v.53a.49.49 0 0 0 .38.48c.34.07.9.18.9 3.42v6.74l-7.52-11.72a.47.47 0 0 0 -.4-.22h-.7a.47.47 0 0 0 -.48.48l-.06 14.4c0 1.07-.25 1.7-.74 1.88a.48.48 0 0 0 -.32.45v.54a.48.48 0 0 0 .48.48h.88a8.66 8.66 0 0 1 1.61 0h.89a.48.48 0 0 0 .48-.48v-.54a.47.47 0 0 0 -.32-.45c-.42-.15-.91-.59-.93-2.62l-.06-7.62 7.65 11.78a.48.48 0 0 0 .41.22h.58a.49.49 0 0 0 .48-.48l.05-13.72c0-2.11.44-2.46.78-2.55a.49.49 0 0 0 .36-.47v-.53a.48.48 0 0 0 -.5-.48z"/><path d="m108.73 25.92a.35.35 0 0 0 .33-.33.52.52 0 0 0 0-.11c0-.66-.05-1.32-.05-2s0-1.18 0-1.89v-.65a.32.32 0 0 0 -.46-.3 3.81 3.81 0 0 1 -1.68.53h-10.25a.32.32 0 0 0 -.32.32v.77a.31.31 0 0 0 .23.3c.82.26 1.32.61 1.32 1.62v4 7.56 7c0 1.43-.41 1.77-1.25 2a.33.33 0 0 0 -.25.32v.77a.32.32 0 0 0 .32.32c.52 0 1 0 1.52-.07a20.89 20.89 0 0 1 3 0c.51 0 1 .07 1.53.07a.33.33 0 0 0 .33-.32v-.83a.32.32 0 0 0 -.33-.32c-.82 0-1.33-.65-1.33-1.68 0-1.53 0-3.5 0-5.43 0-1.73 0-3.42 0-4.76h2.61c.77 0 1.53.22 1.82 1.84a.32.32 0 0 0 .31.26h.87a.35.35 0 0 0 .33-.32.43.43 0 0 0 0-.11c0-.83-.05-1.69-.05-2.52s0-1.79 0-2.69v-.27a.32.32 0 0 0 -.09-.23.29.29 0 0 0 -.23-.1h-.86a.31.31 0 0 0 -.31.29 1.6 1.6 0 0 1 -1.82 1.6h-2.57c0-1.67 0-2.87 0-4.05 0-.93 0-1.85 0-3h3.6c1.3 0 2.08.69 2.44 2.17a.34.34 0 0 0 .31.25h1z"/><path d="m129.81 44.8c-.25 0-.48-.87-.83-2.12l-3.92-14.27a.48.48 0 0 0 -.47-.35h-.21a.48.48 0 0 0 -.46.35l-3.66 13.08a9.77 9.77 0 0 1 -1.26 3.22 4.05 4.05 0 0 1 -.86-1.05l-3.14-5.22a5.28 5.28 0 0 0 2.89-4.79c0-3.22-2-5.3-5.09-5.3-.8 0-1.31 0-1.71.07a8 8 0 0 1 -1.4 0 8.62 8.62 0 0 0 -.87 0 .47.47 0 0 0 -.48.48v.53a.48.48 0 0 0 .35.47c.48.13.61.33.61 1.53v3.12s0 2.08 0 3.13v6.25c0 .72-.23.86-.53 1a.49.49 0 0 0 -.32.46v.54a.48.48 0 0 0 .48.48h1a10.23 10.23 0 0 1 1.75 0h1a.49.49 0 0 0 .48-.48v-.54a.48.48 0 0 0 -.34-.46c-.5-.15-.63-.47-.63-1.56v-3.86c.06.08.1.16.14.22l2.86 4.72a1.15 1.15 0 0 1 .18.44.49.49 0 0 0 -.18.38v.54a.48.48 0 0 0 .48.48h.89a8.87 8.87 0 0 1 1.63 0h.88.76a6.46 6.46 0 0 1 1.39 0h.78a.48.48 0 0 0 .48-.48v-.54a.48.48 0 0 0 -.48-.48s-.14-.2-.14-.56a5.78 5.78 0 0 1 .12-1.12l.38-1.76h3.28l.5 1.89a5.28 5.28 0 0 1 .2 1.13c0 .29-.07.41-.09.42a.48.48 0 0 0 -.48.48v.54a.48.48 0 0 0 .48.48h.91a9.09 9.09 0 0 1 1.65 0h.91a.48.48 0 0 0 .48-.48v-.54a.47.47 0 0 0 -.39-.47zm-17.1-14.61c1.91 0 2.11 2.62 2.11 3.75 0 1.9-1 3.34-2.46 3.34h-.18l.08-6.87c0-.16 0-.22.45-.22zm12.37 9h-2.15l1-4z"/><path d="m22.18 44.68c-.86-.06-1.06-1.8-1.14-3.11l-1.15-20.8a.32.32 0 0 0 -.32-.3h-.77a.3.3 0 0 0 -.3.21l-6.6 18.32-7.51-18.33a.31.31 0 0 0 -.3-.2h-.84a.32.32 0 0 0 -.32.3l-1.29 20c-.18 2.77-.5 3.66-1.41 3.93a.33.33 0 0 0 -.23.3v.78a.32.32 0 0 0 .32.32c.4 0 .8 0 1.19-.07a12.08 12.08 0 0 1 2.25 0c.38 0 .78.07 1.18.07a.32.32 0 0 0 .32-.32v-.78a.33.33 0 0 0 -.26-.31c-.71-.19-1.2-.69-1.2-2.75 0-.55 0-1.29.07-1.83l.41-9.62 6.78 15.51a.32.32 0 0 0 .3.19.32.32 0 0 0 .29-.21l5.35-14.98.58 9.17c0 .45.1 1.21.1 2.36 0 1-.24 2-.89 2.11a.32.32 0 0 0 -.27.32v.78a.32.32 0 0 0 .32.32c.46 0 .92 0 1.36-.07a16.37 16.37 0 0 1 2.62 0c.44 0 .9.07 1.36.07a.32.32 0 0 0 .32-.32v-.74a.32.32 0 0 0 -.32-.32z"/><path d="m53 35.77c-1.32-.6-2.37-1.07-2.37-3.17 0-1.51.92-2.56 1.75-2.56 1.19 0 2 .75 2.35 2.22a.49.49 0 0 0 .47.36h.65a.48.48 0 0 0 .48-.48v-2.65a.48.48 0 0 0 -.19-.39 5.88 5.88 0 0 0 -3.64-1c-2.61 0-4.5 2.43-4.5 5.78 0 3.79 2 4.73 3.64 5.49 1.29.6 2.22 1 2.22 2.66s-.81 2.57-1.86 2.57a2.55 2.55 0 0 1 -2.12-2.3.48.48 0 0 0 -.48-.4h-.61a.49.49 0 0 0 -.36.15.48.48 0 0 0 -.12.36l.17 2.6a.48.48 0 0 0 .15.32 5.69 5.69 0 0 0 3.37 1.25c2.16 0 4.45-1.9 4.45-5.42 0-3.81-1.93-4.69-3.45-5.39z"/><path d="m43.11 35.77c-1.32-.6-2.37-1.07-2.37-3.17 0-1.51.92-2.56 1.75-2.56 1.2 0 2 .75 2.36 2.22a.47.47 0 0 0 .46.36h.69a.49.49 0 0 0 .48-.48v-2.65a.49.49 0 0 0 -.2-.39 5.88 5.88 0 0 0 -3.64-1c-2.61 0-4.5 2.43-4.5 5.78 0 3.79 2 4.73 3.64 5.49 1.22.56 2.22.99 2.22 2.63s-.77 2.61-1.84 2.61a2.55 2.55 0 0 1 -2.16-2.31.48.48 0 0 0 -.47-.4h-.62a.45.45 0 0 0 -.35.15.49.49 0 0 0 -.13.36l.17 2.6a.48.48 0 0 0 .15.32 5.69 5.69 0 0 0 3.39 1.25c2.16 0 4.45-1.9 4.45-5.42.01-3.81-1.92-4.69-3.48-5.39z"/><path d="m64.92 28.06c-4.41 0-7.15 3.55-7.15 9.26s2.74 9.26 7.15 9.26 7.16-3.55 7.16-9.26-2.74-9.26-7.16-9.26zm0 16.54c-2.62 0-3.8-3.66-3.8-7.28s1.18-7.32 3.8-7.32 3.8 3.66 3.8 7.28-1.17 7.32-3.8 7.32z"/><path d="m36.6 28.35c-.32 0-.65 0-1 0a10.7 10.7 0 0 1 -1.79 0c-.32 0-.64 0-1 0a.47.47 0 0 0 -.48.48v.53a.48.48 0 0 0 .39.48.73.73 0 0 1 .48.74c0 .48 0 1.23.06 2.13 0 1.38.1 3.1.1 4.83v2.87c0 2.5-1.61 3.41-2.68 3.41-1.95 0-3.15-.68-3.15-4 0-1.16 0-2.57 0-4s0-2.83 0-4c0-1.72.26-1.9.57-2a.49.49 0 0 0 .39-.48v-.53a.48.48 0 0 0 -.48-.48c-.32 0-.65 0-1 0a10.94 10.94 0 0 1 -1.81 0c-.32 0-.64 0-1 0a.48.48 0 0 0 -.48.48v.53a.49.49 0 0 0 .39.48c.22 0 .45.19.45 1.4v2.26s.05 1.82.05 2.82v4.06c0 4 2.71 6.12 5.38 6.12 1.5 0 6 0 6-7.47v-1.2c0-2.09 0-3.89 0-5.14 0-.68 0-1.2 0-1.53 0-.85.26-1.31.35-1.32a.48.48 0 0 0 .46-.48v-.53a.48.48 0 0 0 -.2-.46z"/><path d="m88 31.87a.72.72 0 0 1 .3-.07.83.83 0 0 1 .7.43 1.37 1.37 0 0 1 .18.71 2 2 0 0 1 -.38 1.18 5.09 5.09 0 0 1 -1.54 1.16 7.85 7.85 0 0 0 -2.44 2.31 5.64 5.64 0 0 0 -.82 2.76c0 .46.34.7.84.64v.1-.12c.34-.89.85-1.67 1.67-1.67a1.41 1.41 0 0 1 1.16.67 2.31 2.31 0 0 1 .41 1.37 3.78 3.78 0 0 1 -.82 2.48 2.79 2.79 0 0 1 -2.09 1.18 4.5 4.5 0 0 1 -2.49-.76 6.6 6.6 0 0 1 -1.62-2.3 3.89 3.89 0 0 1 -.24-2.52 2.64 2.64 0 0 1 1.57-2.09c.56-.21 1.06-.22 1.13-.28.25-.22.29-.59.29-1.24 0-.39-.26-.37-.63-.45a2.7 2.7 0 0 1 -1-.33 2.31 2.31 0 0 1 -.69-1.84 3.16 3.16 0 0 1 .34-1.5 1.33 1.33 0 0 1 1.17-.8 1.64 1.64 0 0 1 1.19.58l.48.5c.1 0 .22-.18.26-.24a1.49 1.49 0 0 0 .22-.79 1.73 1.73 0 0 0 -.69-1.39 2.51 2.51 0 0 0 -1.73-.63 3.71 3.71 0 0 0 -2.49 1.16 4.55 4.55 0 0 0 -.88 1.46 5 5 0 0 0 -.36 1.77 3.2 3.2 0 0 0 .46 1.69c.08.15.91 1 .78 1.43s-.36.54-.63.75a8.45 8.45 0 0 0 -1 1 4.42 4.42 0 0 0 -.87 2.43 5.82 5.82 0 0 0 .43 2.63 6 6 0 0 0 1.89 2.59 6.26 6.26 0 0 0 4.07 1.37 6.39 6.39 0 0 0 3.25-.83 6.2 6.2 0 0 0 2.62-2.83 5.58 5.58 0 0 0 .57-2.35 3.63 3.63 0 0 0 -.2-1.22 2.14 2.14 0 0 0 -.49-.84 1.49 1.49 0 0 1 -.57-1 1.88 1.88 0 0 1 .8-1.29 4.56 4.56 0 0 0 1.24-1.62 4.84 4.84 0 0 0 .45-2 4.18 4.18 0 0 0 -.21-1.34 2.6 2.6 0 0 0 -.52-1 1.67 1.67 0 0 0 -2.07-.4 1.9 1.9 0 0 0 -.66.6 1.35 1.35 0 0 0 -.26.79"/></g><path d="m210.05 25.28a2.28 2.28 0 0 0 1.72.73h.3a3.54 3.54 0 0 0 3-3.08 2.42 2.42 0 0 0 -.51-1.77 2.29 2.29 0 0 0 -.53-1.12 2.35 2.35 0 0 0 -2-.71 3.53 3.53 0 0 0 -3 3.08 2.4 2.4 0 0 0 .5 1.77 2.22 2.22 0 0 0 .52 1.1z" fill="#231f20"/><path d="m166.85 25.14c-4.56 7.67-4.88 14.34-3.07 17.68l.05.07a6.34 6.34 0 0 0 .42 1 5 5 0 0 0 4.61 2.79c2.09 0 4.52-1 7.12-3-.21.44-.41.9-.61 1.33-2.23 2-7.74 7.8-9 9.19-5.3 5.77-11.08 12.14-15 18.46-2.53 4-3.42 7.19-2.49 8.86a1.1 1.1 0 0 0 .09.14 2.17 2.17 0 0 0 .21.54 2.5 2.5 0 0 0 2.35 1.21c1.85 0 4.26-1.21 6.29-3.16 7.95-7.79 12.01-15.25 16.18-24.25.77-1.63 5.12-9.81 6.38-12.42l3.68-4.09c4.62-3.53 6.8-4.45 10.33-8a1.38 1.38 0 0 1 1-.49 1 1 0 0 1 .33.07 2.21 2.21 0 0 1 -.44.94c-.57.77-1.05 1.44-1.51 2.08-.21.3-.42.6-.64.89-2.1 2.91-3.81 5.94-2.24 8.4a4 4 0 0 0 3.76 2.87c2.42 0 5-1.88 6.84-3.73a3.66 3.66 0 0 0 .42.92 3.94 3.94 0 0 0 1.09 1.75 4.47 4.47 0 0 0 3.16 1.12 8.42 8.42 0 0 0 3.71-.94 14.4 14.4 0 0 0 2.13-1.37l.27-.19c.71 1.62 2.57 2.54 5.16 2.54a11.53 11.53 0 0 0 4.63-1 28.63 28.63 0 0 0 3.34-1.82 12.3 12.3 0 0 0 1.27 4.73c1 2.51 2.7 4.13 4.92 4.37 3.42.38 6.38-1 8.77-4.08l-.33-.4c-.41.21-.79.4-1.16.56a11.92 11.92 0 0 0 1-1.18l-.33-.4a9.29 9.29 0 0 1 -4.35 1.31 7.7 7.7 0 0 1 -2.26-.38 3.54 3.54 0 0 1 -1.88-1.83 13 13 0 0 1 -.54-6.45 49.56 49.56 0 0 0 15.6-23.39c.53-1.87.49-3.23-.11-4l-.06-.06a2.48 2.48 0 0 0 -.4-1 1.93 1.93 0 0 0 -1.61-.74 5.6 5.6 0 0 0 -3.27 1.39c-5.07 4.12-11.78 13.54-14.8 23.58a14.86 14.86 0 0 0 -.61 3.41c-.58.44-1.18.86-1.78 1.26a8.08 8.08 0 0 1 -4.41 1.58 3.45 3.45 0 0 1 -2.73-1.16c6.13-5.19 11.24-13 15.18-23.24.94-2.44 1.08-4.18.4-5.17a.55.55 0 0 0 -.1-.11 2.48 2.48 0 0 0 -.36-.91 2 2 0 0 0 -1.69-.81 5.93 5.93 0 0 0 -3.88 1.93 56.39 56.39 0 0 0 -14 24.76 12.31 12.31 0 0 0 -.51 3.19c-2.36 1.54-4.35 1.83-5.24.82a4.51 4.51 0 0 1 .27-2.11 112 112 0 0 1 5.4-11.27l.21-.39h-1l.34-.63.21-.39h-4.76l-.08.15c-.94 1.8-1.65 3.24-2.27 4.52a50 50 0 0 1 -4.58 8c-1.07 1.51-2.41 2.59-3.35 2.7h-.3a1.61 1.61 0 0 1 -.71-.14 6.75 6.75 0 0 1 1.62-3.31c.19-.27.42-.55.66-.84 1.41-1.74 3.34-4.12 1.57-7.26a6 6 0 0 0 -.51-1.1v-.06l-.19-.33c-.12-.55.14-1 .93-2a1.68 1.68 0 0 0 .32-1.77 1.26 1.26 0 0 0 -.33-.4 1.2 1.2 0 0 0 -.13-.62 1.46 1.46 0 0 0 -1.36-.76 2.84 2.84 0 0 0 -2.11 1.14c-.89.83-3.31 3.31-5.87 5.93l-3.69 3.77 1.09-2.61c.46-1.12.95-2.3 1.52-3.63l.16-.37h-.9l.28-.65.16-.37h-4.43l-.08.14c-.69 1.32-1.21 2.35-1.63 3.18a28.39 28.39 0 0 1 -3.79 6.06c-2.15 2.73-4.37 4.3-6.07 4.3a2.23 2.23 0 0 1 -1.93-1c-.72-2.43-.09-7.15 3.86-13.78 11.29.28 19.14-2.23 24.81-8 3.76-3.8 5.22-7.64 4-10.52a3.78 3.78 0 0 0 -.33-.63c0-.13-.08-.26-.13-.38-.93-2.31-3.45-3.68-6.73-3.68a16.61 16.61 0 0 0 -6.36 1.41c-8.4 3.53-13.77 9-18.33 14.47a31.34 31.34 0 0 0 -2.37 3.33h-1.12m49.56 13.39a58 58 0 0 1 7.69-13.19 3.42 3.42 0 0 1 1.05-1 5.65 5.65 0 0 1 -.57 1.51c-.3.58-.6 1.13-.87 1.66a48.36 48.36 0 0 1 -7.3 11.02zm-61.09 39.5c-2 2-2.81 2.27-3.12 2.28a8.56 8.56 0 0 1 1.32-3.38 118.86 118.86 0 0 1 12.49-14.91c.86-.83 1.65-1.48 2.49-2.18l.39-.32a80.66 80.66 0 0 1 -13.57 18.51zm35.66-57.1c-2.62 2-8.3 4.07-15.1 4.07h-.07a64.52 64.52 0 0 1 5.58-7.64c4.92-5.5 8.42-6.33 10.06-6.33a3.7 3.7 0 0 1 3.3 1.65c.61 2.19-.28 5.53-3.77 8.25zm47.57 4.6a13.24 13.24 0 0 1 -.79 1.84 42.28 42.28 0 0 1 -6.72 10 37.84 37.84 0 0 1 6.49-11 3.48 3.48 0 0 1 1.02-.87z" fill="#231f20"/><path d="m88.78 22.48c-4 1.07-7.57-1.24-9.47-4.7-3.44-6.28 1.85-17.38 14.69-17.48 20-.15 38.64 23 81.57 21 0 0-1 1.81-1.47 2.61-19.32-.11-32.43-.78-54.71-10.22-11.69-4.98-33.96-14.29-36.68-.52-1.51 7.68 6.07 9.31 6.07 9.31z" fill="none" stroke="#231f20" stroke-linecap="round" stroke-linejoin="round" stroke-width=".6"/><path d="m209.27 22.42a3.28 3.28 0 0 1 2.78-2.85 2 2 0 0 1 2.31 2.3 3.27 3.27 0 0 1 -2.78 2.84 2 2 0 0 1 -2.31-2.29zm6.54 14.58c.54-.55 1.1-1.14 1.67-1.79 4.56-5.11 5.94-8.2 8.59-13.16 1.36-2.57.5-4.25-1.39-1.82-4.35 5.62-7.79 12.27-8.87 16.77zm14.68-1.32a42.36 42.36 0 0 0 8.75-12.15c2.33-4.57-.07-3.57-1.13-2.33a37.7 37.7 0 0 0 -7.62 14.48zm-59 17.56c-1.72 1.57-3.13 2.55-4.71 4.08a120.47 120.47 0 0 0 -12.51 14.93c-1.28 1.84-3.15 7.43 2.38 2a80.52 80.52 0 0 0 14.89-21.01zm4-32c7.24.35 13.83-1.73 16.87-4.08 8.93-6.9 2-18.86-10.4-5a68.8 68.8 0 0 0 -6.44 9.1zm-6.16.23a34.21 34.21 0 0 1 2.44-3.42c4.3-5.05 9.73-10.79 18.23-14.38 10.76-4.53 18.32 2.66 8.79 12.3-5.77 5.85-13.62 8.19-24.77 7.9-8.6 14.32-2.67 21.67 5 12 2.84-3.61 2.81-4.27 5.45-9.27h3.83c-1.68 3.88-2.59 6.43-4.46 10.29 3.61-3.56 10.63-10.89 12.29-12.44 1.71-2.07 4.12-.77 2.76 1s-1.18 2.08-.27 3.65c2 3.52-.73 6-2.17 7.89-2.59 3.48-1.86 5.1.1 4.88 1.1-.12 2.51-1.37 3.53-2.8 3.15-4.45 3.77-6.57 6.88-12.52h4.16a110.14 110.14 0 0 0 -5.42 11.3c-1.19 3.37.89 6 6 2.66a11.77 11.77 0 0 1 .49-3.26 56.5 56.5 0 0 1 14-24.65c2.53-2.62 7.47-3.31 4.73 3.78-3.42 8.88-8.27 17.42-15.29 23.28a1.75 1.75 0 0 0 .13.44c1 2.36 4.27 2.93 8 .43.65-.43 1.28-.88 1.88-1.34a15.67 15.67 0 0 1 .61-3.48c3-10 9.75-19.4 14.71-23.44 2.56-2.08 6.08-2.2 4.57 3.09a49.37 49.37 0 0 1 -15.7 23.34c-.78 4.76.92 9.06 3 9.69 1.71.51 3.48.83 6.81-.94-2.33 3-5.17 4.35-8.53 4s-5.66-4.31-5.54-9.57a31.46 31.46 0 0 1 -4.13 2.32c-2.8 1.29-8.44 1.66-9.56-1.75a18.46 18.46 0 0 1 -2.68 1.69c-3.63 1.8-7.8 1.09-7.8-3.48-2.93 3.44-7.82 6.18-10.25 2.75-1.66-2.37.09-5.4 2.15-8.26.65-.9 1.3-1.83 2.14-3 1.41-1.88-.39-3.29-1.74-1.88-3.92 4-10.29 7-13.45 12.49-9.76 17-13.51 27.47-23 36.56-5.43 5.23-12.81 4.43-5.86-6.68 4.92-7.87 14.88-18.55 24.12-27.57 1.23-1.21 1.44-3.17 2.17-4.8-13.36 12.76-19.94-.83-9.89-16.3" fill="url(#a)" fill-rule="evenodd"/><path d="m88.78 22.48c-4 1.07-7.57-1.24-9.47-4.7-3.44-6.28 1.85-17.38 14.69-17.48 20-.15 38.64 23 81.57 21 0 0-1 1.81-1.47 2.61-19.32-.11-32.43-.78-54.71-10.22-11.69-4.98-33.96-14.29-36.68-.52-1.51 7.68 6.07 9.31 6.07 9.31z" fill="url(#b)" fill-rule="evenodd"/><path d="m87 21.68a1.48 1.48 0 0 1 -.51-1.37 1.9 1.9 0 0 1 2.1-1.6 1.87 1.87 0 0 1 1.71 1.94 2.11 2.11 0 0 1 -1.52 1.83 7.29 7.29 0 0 1 -7.78-3.22" fill="url(#c)" fill-rule="evenodd"/><path d="m148.67 2.52a2.58 2.58 0 0 0 .94-.2.79.79 0 0 1 .22 0c.14 0 .39.17.68.83a4 4 0 0 1 .34 1.52c0 .44 0 .65-.17.81a.5.5 0 0 1 -.38.17.45.45 0 0 1 -.35-.17 2.18 2.18 0 0 1 -.4-.71 3.23 3.23 0 0 0 -.31-.68.52.52 0 0 0 -.43-.24.53.53 0 0 0 -.5.38 2.75 2.75 0 0 0 -.1.87v4.82c0 .56 0 1.28.58 1.62a1.07 1.07 0 0 1 .34.29.6.6 0 0 1 .08.35c0 .28-.11.34-.36.47h-3.58c-.31-.14-.46-.19-.46-.53a.48.48 0 0 1 .14-.36l.34-.16a.69.69 0 0 0 .4-.45 15.82 15.82 0 0 0 .23-3c0-.93 0-2.17 0-2.84a5.33 5.33 0 0 0 -.08-1.06c-.06-.21-.19-.45-.46-.45s-.51.33-.62.56a4.36 4.36 0 0 1 -.59 1c-.17.19-.3.24-.39.24a.35.35 0 0 1 -.31-.21 1.48 1.48 0 0 1 -.1-.74 6 6 0 0 1 .5-1.65c.29-.56.52-.71.65-.71a.93.93 0 0 1 .19 0c.22.06.39.11.52.13a3.58 3.58 0 0 0 .49 0h2.95m5.49 3.58c0 .28 0 .79.47.79.23 0 .38-.2.52-.34a1.52 1.52 0 0 1 1.19-.54 1.42 1.42 0 0 1 1.24.68 2 2 0 0 1 .3.74 7.75 7.75 0 0 1 .11 1.3l.01 2.37a1.73 1.73 0 0 0 .08.61 1.56 1.56 0 0 0 .33.49.45.45 0 0 1 .12.32.54.54 0 0 1 0 .21h-3a.41.41 0 0 1 0-.16 1.1 1.1 0 0 1 .21-.5 6.06 6.06 0 0 0 .26-2.24 6.23 6.23 0 0 0 -.14-1.58c-.13-.47-.4-.8-.86-.8a.73.73 0 0 0 -.7.46 2.63 2.63 0 0 0 -.14 1v1.53a11 11 0 0 0 .08 1.18 2 2 0 0 0 .28.56.5.5 0 0 1 .07.29.53.53 0 0 1 -.05.25h-3a.61.61 0 0 1 0-.52 1.88 1.88 0 0 1 .27-.32 2.21 2.21 0 0 0 .34-1.26q.09-.95.09-3.12c0-1.14 0-1.94-.07-2.38a1 1 0 0 0 -.1-.42 1 1 0 0 0 -.28-.3.61.61 0 0 1 -.27-.44c-.05-.37.64-.8 1.14-1 .66-.26 1.65-.66 1.62-.24zm9.72 4.64a.68.68 0 0 1 .11.12.83.83 0 0 1 .11.4 1.22 1.22 0 0 1 -.44.87 2.54 2.54 0 0 1 -1.84.79 2.24 2.24 0 0 1 -1.75-.8 3.38 3.38 0 0 1 -.6-1 4.54 4.54 0 0 1 -.3-1.64 4 4 0 0 1 .53-2.07 2.91 2.91 0 0 1 1.15-1.16 2.16 2.16 0 0 1 1.09-.28 2.1 2.1 0 0 1 1.6.7 3 3 0 0 1 .55.86 2.85 2.85 0 0 1 .24 1.11 1.53 1.53 0 0 1 -.13.7c-.08.17-.16.18-.19.18h-2.56a.35.35 0 0 0 -.37.37 1.46 1.46 0 0 0 .42 1 1.39 1.39 0 0 0 1 .47 1.66 1.66 0 0 0 .67-.15 2.26 2.26 0 0 0 .59-.36.53.53 0 0 1 .12-.08zm-1.74-2.18a.53.53 0 0 0 .56-.6 1.21 1.21 0 0 0 -.2-.71.74.74 0 0 0 -.62-.33.72.72 0 0 0 -.66.42 1.31 1.31 0 0 0 -.18.66.55.55 0 0 0 .12.4.56.56 0 0 0 .44.16z" fill="#e9e3d5" fill-rule="evenodd"/></svg>